<svg width="1200" height="560" viewBox="0 0 1200 560" fill="none" xmlns="http://www.w3.org/2000/svg" role="img" aria-labelledby="title desc">
  <title id="title">Sayem Ahmed Shayeed — research and engineering profile</title>
  <desc id="desc">A dark terminal-inspired hero with a green grid, abstract ASCII code fields, and the message Build Reliable Systems. Study Useful Intelligence.</desc>
  <defs>
    <linearGradient id="bg" x1="0" y1="0" x2="1200" y2="560" gradientUnits="userSpaceOnUse">
      <stop stop-color="#090B0B"/><stop offset="0.5" stop-color="#111513"/><stop offset="1" stop-color="#080A0A"/>
    </linearGradient>
    <radialGradient id="greenGlow" cx="0" cy="0" r="1" gradientUnits="userSpaceOnUse" gradientTransform="translate(584 240) rotate(90) scale(260 430)">
      <stop stop-color="#B7FF38" stop-opacity="0.13"/><stop offset="1" stop-color="#B7FF38" stop-opacity="0"/>
    </radialGradient>
    <linearGradient id="fadeLeft" x1="0" y1="0" x2="390" y2="0" gradientUnits="userSpaceOnUse"><stop stop-color="#B7FF38" stop-opacity="0"/><stop offset="0.3" stop-color="#B7FF38" stop-opacity="0.32"/><stop offset="1" stop-color="#B7FF38" stop-opacity="0"/></linearGradient>
    <linearGradient id="fadeRight" x1="1200" y1="0" x2="810" y2="0" gradientUnits="userSpaceOnUse"><stop stop-color="#B7FF38" stop-opacity="0"/><stop offset="0.3" stop-color="#B7FF38" stop-opacity="0.28"/><stop offset="1" stop-color="#B7FF38" stop-opacity="0"/></linearGradient>
    <pattern id="grid" width="42" height="42" patternUnits="userSpaceOnUse"><path d="M42 0H0V42" stroke="#B7FF38" stroke-opacity="0.075"/><circle cx="1" cy="1" r="1.2" fill="#B7FF38" fill-opacity="0.14"/></pattern>
    <filter id="softGlow" x="-30%" y="-30%" width="160%" height="160%"><feGaussianBlur stdDeviation="8" result="blur"/><feMerge><feMergeNode in="blur"/><feMergeNode in="SourceGraphic"/></feMerge></filter>
    <filter id="textGlow" x="-20%" y="-40%" width="140%" height="180%"><feGaussianBlur stdDeviation="3" result="blur"/><feMerge><feMergeNode in="blur"/><feMergeNode in="SourceGraphic"/></feMerge></filter>
    <clipPath id="clip"><rect width="1200" height="560" rx="8"/></clipPath>
  </defs>
  <g clip-path="url(#clip)">
    <rect width="1200" height="560" fill="url(#bg)"/><rect width="1200" height="560" fill="url(#grid)"/><rect width="1200" height="560" fill="url(#greenGlow)"/>

    <g fill="none" stroke="#B7FF38" stroke-opacity="0.35" stroke-width="1.5">
      <path d="M110 0C150 60 150 112 136 168C126 208 129 247 158 280"/><path d="M152 0C195 70 192 126 180 181C173 218 179 247 209 274"/><path d="M194 0C238 70 237 125 226 178C220 216 229 243 258 264"/><path d="M236 0C280 70 281 120 272 170C267 204 278 235 307 253"/><path d="M110 34C164 43 220 42 278 34"/><path d="M125 76C180 87 235 86 287 78"/><path d="M130 118C182 129 234 128 283 119"/><path d="M128 160C179 170 231 168 276 159"/>
    </g>
    <g fill="#D4FF79" filter="url(#softGlow)"><circle cx="246" cy="76" r="2.2"/><circle cx="287" cy="34" r="2.4"/><circle cx="226" cy="178" r="1.8"/><circle cx="180" cy="181" r="1.7"/></g>

    <g font-family="monospace" font-size="7" letter-spacing="1.1" fill="#B7FF38" opacity="0.28">
      <text x="-8" y="230">01001001 01101110 01110100 01100101 01110010 01110000 01110010 01100101 01110100</text><text x="-12" y="240">&gt;&gt; system.research() :: reliable_models :: local_first :: useful_software</text><text x="-18" y="250">00011100 01010101 11001010 00101100 01101001 10011010 00100111 01100001 01101100</text><text x="-8" y="260">function build(signal) { return clarity(signal).through(practice); }</text><text x="6" y="270">::::::::::::::::::::::::::::::::::::::::::::::::::::::::::::::::::::::::::::::</text><text x="12" y="280">git commit -m "make something dependable" // status: learning</text><text x="-10" y="290">10110001 01100100 00110010 01101111 01110000 01100101 01101110 01110011 01101111</text>
    </g>
    <g font-family="monospace" font-size="7" letter-spacing="1.1" fill="#B7FF38" opacity="0.25" text-anchor="end">
      <text x="1210" y="250">11010011 01100100 01100001 01110100 01100001 00101110 01101100 01101001 01100110 01100101</text><text x="1220" y="260">model.predict() :: explain() :: calibrate() :: repeat()</text><text x="1215" y="270">00101100 01110100 01110010 01110101 01110011 01110100 00101100 01110010 01100101</text><text x="1220" y="280">const future = buildWithCare(people, problems, patience);</text><text x="1210" y="290">::::::::::::::::::::::::::::::::::::::::::::::::::::::::::::::::::::::::::::::</text><text x="1215" y="300">$ ./ship --quietly --usefully --with-tests</text>
    </g>
    <rect y="197" width="405" height="120" fill="url(#fadeLeft)" opacity="0.35"/><rect x="795" y="205" width="405" height="120" fill="url(#fadeRight)" opacity="0.3"/>

    <g text-anchor="middle"><text x="600" y="174" fill="#A4AFA5" font-family="monospace" font-size="10" letter-spacing="4">[ THE FUTURE OF GITHUB PROFILES ]</text><text x="600" y="254" fill="#F7F4EC" font-family="Georgia, 'Times New Roman', serif" font-size="51" letter-spacing="-1.5">Build <tspan fill="#B7FF38" font-style="italic">Reliable</tspan> Systems.</text><text x="600" y="310" fill="#F7F4EC" font-family="Georgia, 'Times New Roman', serif" font-size="51" letter-spacing="-1.5">Study Useful Intelligence.</text><text x="600" y="344" fill="#A4AFA5" font-family="Arial, sans-serif" font-size="12">Research, engineering, and calm software for problems that matter.</text><text x="600" y="362" fill="#A4AFA5" font-family="Arial, sans-serif" font-size="12">A personal profile by Sayem Ahmed Shayeed.</text></g>

    <g filter="url(#textGlow)"><rect x="405" y="392" width="390" height="38" rx="4" fill="#B7FF38"/></g><g font-family="Arial, sans-serif" font-size="12" font-weight="700"><text x="437" y="416" fill="#0C100C">◉</text><text x="600" y="416" fill="#0C100C" text-anchor="middle">Explore the profile below</text></g>
    <rect x="405" y="450" width="390" height="38" rx="4" fill="#171C18" stroke="#39433A"/><text x="430" y="474" fill="#7E8A7E" font-family="monospace" font-size="11">&gt; sayem-ahmed-shayeed</text><text x="770" y="474" fill="#DCE7DB" font-family="Arial, sans-serif" font-size="11" text-anchor="end">scroll down →</text>
  </g>
  <rect x="1" y="1" width="1198" height="558" rx="7" stroke="#293128" stroke-width="2"/>
</svg>
